<svg width="38" height="21" viewBox="0 0 38 21" fill="none" xmlns="http://www.w3.org/2000/svg">
<path d="M5.74623 9.24674C9.74305 6.73304 11.6434 9.142 13.31 12.3104C11.9309 14.8216 11.0185 16.354 10.5728 16.9077C9.73226 17.9522 8.81534 18.7431 7.68763 19.1994C5.31686 20.3136 2.36966 20.3657 0.09375 18.9881L5.74623 9.24674Z" fill="url(#paint0_linear_2518_61)"/>
<path fill-rule="evenodd" clip-rule="evenodd" d="M33.7118 7.94735C30.0969 1.62267 26.3602 -4.33612 22.0677 4.40487C21.4805 5.52857 21.0525 7.71242 20.0938 7.71242V7.70132C19.135 7.70132 18.7071 5.51748 18.1199 4.39378C13.8273 -4.34722 10.0906 1.61157 6.47574 7.93626C6.2037 8.41324 5.94238 8.86845 5.71875 9.26407C14.003 4.0198 13.3055 19.863 20.0938 19.9889V20C26.8821 19.8741 26.1845 4.0309 34.4688 9.27503C34.2453 8.87955 33.9839 8.42434 33.7118 7.94735" fill="url(#paint1_linear_2518_61)"/>
<path fill-rule="evenodd" clip-rule="evenodd" d="M34.1562 20C36.2273 20 37.9062 18.321 37.9062 16.25C37.9062 14.179 36.2273 12.5 34.1562 12.5C32.0852 12.5 30.4062 14.179 30.4062 16.25C30.4062 18.321 32.0852 20 34.1562 20" fill="url(#paint2_linear_2518_61)"/>
<defs>
<linearGradient id="paint0_linear_2518_61" x1="10.875" y1="3.10859" x2="4.11899" y2="10.2831" gradientUnits="userSpaceOnUse">
<stop stop-color="#004B50"/>
<stop offset="1" stop-color="#00A76F"/>
</linearGradient>
<linearGradient id="paint1_linear_2518_61" x1="5.71875" y1="0" x2="5.71875" y2="20" gradientUnits="userSpaceOnUse">
<stop stop-color="#5BE49B"/>
<stop offset="1" stop-color="#00A76F"/>
</linearGradient>
<linearGradient id="paint2_linear_2518_61" x1="30.4062" y1="12.5" x2="30.4062" y2="20" gradientUnits="userSpaceOnUse">
<stop stop-color="#5BE49B"/>
<stop offset="1" stop-color="#00A76F"/>
</linearGradient>
</defs>
</svg>
